Coordinates
version=1
nRows=8
nColumns=42
inDegrees=yes

Units are S.I. units (second, meters, Newtons, ...)
If the header above contains a line with 'inDegrees', this indicates whether rotational values are in degrees (yes) or radians (no).

endheader
time	pelvis_tilt	pelvis_list	pelvis_rotation	pelvis_tx	pelvis_ty	pelvis_tz	hip_flexion_r	hip_adduction_r	hip_rotation_r	knee_angle_r	knee_adduction_r	knee_angle_r_beta	ankle_angle_r	subtalar_angle_r	mtp_angle_r	hip_flexion_l	hip_adduction_l	hip_rotation_l	knee_angle_l	knee_adduction_l	knee_angle_l_beta	ankle_angle_l	subtalar_angle_l	mtp_angle_l	lumbar_extension	lumbar_bending	lumbar_rotation	arm_flex_r	arm_add_r	arm_rot_r	elbow_flex_r	pro_sup_r	wrist_flex_r	wrist_dev_r	arm_flex_l	arm_add_l	arm_rot_l	elbow_flex_l	pro_sup_l	wrist_flex_l	wrist_dev_l
      0.00000000	      3.00715217	     -2.08726132	     -5.95538905	     -1.38130046	      1.00343102	     -0.23686939	    -16.74264011	      0.53868994	      4.17485135	      5.94993003	     10.73892950	      0.10384587	     12.99413743	      7.85260052	     -9.51174488	     20.43681137	    -12.50252193	    -11.02088535	     15.25831763	     11.88717847	      0.26630788	      1.52911922	     -6.61027111	     -9.51174488	    -12.39983513	     -0.98383083	     12.41138454	     12.05375314	    -20.73754001	     -3.50136191	     41.85027140	     90.00000001	      0.00000000	      0.00000000	    -19.59524079	    -15.88139338	      0.63922882	     23.91625805	     90.00000001	      0.00000000	      0.00000000
      0.01000000	      2.61754280	     -2.49953381	     -6.32238197	     -1.36842065	      1.00041374	     -0.23663113	    -17.00624697	      0.91175219	      4.48133900	      6.31320457	     10.60813421	      0.11018621	     13.38015125	      7.93806322	     -9.47256899	     20.88840066	    -13.11630075	    -11.71736162	     12.67014250	     12.33171620	      0.22113570	      1.36503698	     -4.88048753	     -9.47256899	    -12.09046899	     -0.64453719	     12.79928146	     12.93872721	    -21.16993138	     -2.90774778	     42.38342606	     90.00000001	      0.00000000	      0.00000000	    -20.27257516	    -15.73486348	      0.39048693	     23.97381259	     90.00000001	      0.00000000	      0.00000000
      0.02000000	      2.31104073	     -2.76806404	     -6.70570894	     -1.35496029	      0.99746720	     -0.23625797	    -17.41842625	      1.14177660	      4.77263228	      6.60234232	     10.41578482	      0.11523261	     13.70499403	      7.94151890	     -9.44303789	     21.18707672	    -13.62664373	    -12.46800957	     10.37132784	     12.88594693	      0.18101382	      1.15523610	     -3.30704613	     -9.44303789	    -11.79911657	     -0.49564001	     13.13565879	     13.73841404	    -21.51712019	     -2.25637467	     42.82249541	     90.00000001	      0.00000000	      0.00000000	    -20.94657310	    -15.62547544	      0.12271127	     24.00674533	     90.00000001	      0.00000000	      0.00000000
      0.03000000	      2.57588034	     -2.77714987	     -7.28268939	     -1.34111430	      0.99528534	     -0.23620317	    -18.48189724	      0.82718613	      5.48067962	      6.71653058	     10.42177813	      0.11722557	     13.85133732	      7.68213066	     -9.36682275	     20.74105715	    -13.73591872	    -13.71354841	      8.38044110	     13.18433998	      0.14626629	      1.41387067	     -1.43787578	     -9.36682275	    -12.11231574	     -0.69140444	     13.49560711	     14.57942234	    -21.97644966	     -1.12076805	     43.35252772	     90.00000001	      0.00000000	      0.00000000	    -21.49848915	    -15.31508104	     -0.80811496	     23.88234220	     90.00000001	      0.00000000	      0.00000000
      0.04000000	      2.31694672	     -2.92579282	     -7.66783764	     -1.32740081	      0.99259460	     -0.23591475	    -18.86968762	      0.88680429	      5.89286205	      7.13853691	     10.25070016	      0.12459097	     14.02056896	      7.53273241	     -9.33791205	     21.03860550	    -14.05214369	    -14.25086049	      6.95776712	     13.55841727	      0.12143594	      1.41068593	     -0.20659478	     -9.33791205	    -11.84960448	     -0.69062168	     13.72667727	     15.31142950	    -22.15719148	     -0.52798484	     43.58709800	     90.00000001	      0.00000000	      0.00000000	    -22.06947451	    -15.17576446	     -1.11126846	     23.86406817	     90.00000001	      0.00000000	      0.00000000
      0.05000000	      2.26817172	     -2.92474738	     -8.10506429	     -1.31345327	      0.99026758	     -0.23567335	    -19.44666333	      0.71512123	      6.39408874	      7.58433769	     10.10472049	      0.13237166	     14.10490619	      7.33918738	     -9.31099491	     21.08735576	    -14.15043075	    -14.79836457	      5.98320175	     13.80078724	      0.10442657	      1.55615093	      0.74648394	     -9.31099491	    -11.78884778	     -0.89343165	     13.93996082	     15.96636722	    -22.35573868	      0.23402113	     43.84647361	     90.00000001	      0.00000000	      0.00000000	    -22.55998129	    -15.01211270	     -1.52528731	     23.77173683	     90.00000001	      0.00000000	      0.00000000
      0.06000000	      2.54065800	     -2.66213961	     -8.59399523	     -1.29906678	      0.98851611	     -0.23576376	    -20.44419959	      0.09182545	      7.35960906	      7.73681502	     10.10929104	      0.13503290	     13.80113072	      6.39709895	     -9.14731872	     20.88668645	    -13.91166582	    -16.01863089	      5.84613648	     13.83901117	      0.10203433	      2.10344413	      2.43909771	     -9.14731872	    -12.01690812	     -1.40843630	     14.11922443	     16.52629223	    -22.54446042	      1.06352180	     44.17836042	     90.00000001	      0.00000000	      0.00000000	    -22.71029440	    -14.55819167	     -3.26043529	     23.18532533	     90.00000001	      0.00000000	      0.00000000
      0.07000000	      2.56889699	     -2.45329741	     -8.99127387	     -1.28470911	      0.98661232	     -0.23578196	    -20.95625603	     -0.35434451	      7.80782280	      8.41510020	      9.99590096	      0.14687121	     13.73411460	      6.20735723	     -9.11677508	     20.91566428	    -13.68353488	    -16.16992955	      5.80566660	     13.85079027	      0.10132800	      2.17249067	      2.45356788	     -9.11677508	    -11.97840199	     -1.83423801	     14.29486211	     16.88657729	    -22.66910335	      1.65736720	     44.48098356	     90.00000001	      0.00000000	      0.00000000	    -23.01660470	    -14.45505999	     -3.43194410	     23.07323515	     90.00000001	      0.00000000	      0.00000000
